<svg width="27" height="107" viewBox="0 0 27 107" fill="none" xmlns="http://www.w3.org/2000/svg">
<g clip-path="url(#clip0_1_23)">
<path d="M8.66 74.16C6.46 71.96 3.48 70.73 0.38 70.73H0L13.19 106.59L26.38 70.73H25.85C22.74 70.73 19.76 71.96 17.56 74.16C17.03 74.69 16.16 74.69 15.63 74.16C15.1 73.63 15.1 72.76 15.63 72.23L15.78 72.08C17.97 69.89 19.2 66.92 19.2 63.82C19.2 62.23 17.91 60.95 16.33 60.95H13.82V32.56L19.11 28.27V0L13.18 4.81L7.26 0V28.27L12.55 32.56V60.95H10.19C8.52 60.95 7.17 62.3 7.17 63.97C7.17 67.07 8.4 70.04 10.59 72.23C11.12 72.76 11.12 73.63 10.59 74.16C10.06 74.69 9.19 74.69 8.66 74.16V74.16ZM13.19 8.18L16.5 5.5V27.02L13.19 29.7V8.18Z" fill="white"/>
</g>
<defs>
<clipPath id="clip0_1_23">
<rect width="26.39" height="106.59" fill="white"/>
</clipPath>
</defs>
</svg>
