<?xml version="1.0" encoding="utf-8"?>
<!-- Generator: Adobe Illustrator 27.0.0, SVG Export Plug-In . SVG Version: 6.00 Build 0)  -->
<svg version="1.1" id="Layer_1" xmlns="http://www.w3.org/2000/svg" xmlns:xlink="http://www.w3.org/1999/xlink" x="0px" y="0px"
	 viewBox="0 0 1024 359.8" style="enable-background:new 0 0 1024 359.8;" xml:space="preserve">
<style type="text/css">
	.st0{fill:#FFFFFF;}
	.st1{fill:#FF9700;}
	.st2{fill:#C48EFA;}
</style>
<g>
	<path class="st0" d="M56.7,10.4h9.7L40.5,50.8v26.1h-8.8V50.8l-26-40.5h10l20.8,31.9L56.7,10.4z"/>
	<path class="st0" d="M98.4,78.2c-19.4,0-33.1-14-33.1-34.5C65.3,23.2,79,9.1,98.4,9.1c19.3,0,33.1,14,33.1,34.5
		C131.5,64.2,117.7,78.2,98.4,78.2z M98.4,16.9c-14.4,0-23.7,10.5-23.7,26.7S84,70.4,98.4,70.4c14.4,0,23.6-10.5,23.6-26.7
		S112.8,16.9,98.4,16.9z"/>
	<path class="st0" d="M140.3,51.5V10.4h9.1v41.2c0,12.7,6.2,18.9,17.9,18.9s18.1-6.2,18.1-18.8V10.4h9v41.1c0,19.4-12,26.7-27,26.7
		S140.3,70.9,140.3,51.5z"/>
	<path class="st0" d="M203.8,10.4h10.5v9.9c0,7.4-1.9,11.5-10.5,11.6v-5.2c4-0.3,5-1.7,5-6.3h-5V10.4z"/>
	<path class="st0" d="M233.9,10.4v58.9H271v7.6h-46.3V10.4H233.9z"/>
	<path class="st0" d="M289.3,10.4v58.9h37.1v7.6h-46.3V10.4H289.3z"/>
	<path class="st0" d="M384,9.1c19,0,29.8,11.7,31.1,28.8l-8.9,0.4c-0.7-12.3-8.5-21.4-22.2-21.4c-13.5,0-23.2,10.4-23.2,26.7
		c0,16.4,9.7,26.7,23.2,26.7c13.7,0,21.4-9.2,22.2-21.4l8.9,0.4c-1.3,17.1-12,28.8-31.1,28.8c-18.4,0-32.6-14-32.6-34.5
		C351.4,23.2,365.6,9.1,384,9.1z"/>
	<path class="st0" d="M454.8,78.2c-19.4,0-33.1-14-33.1-34.5c0-20.5,13.6-34.5,33.1-34.5c19.3,0,33.1,14,33.1,34.5
		C487.8,64.2,474.1,78.2,454.8,78.2z M454.8,16.9c-14.4,0-23.7,10.5-23.7,26.7s9.3,26.7,23.7,26.7c14.4,0,23.6-10.5,23.6-26.7
		S469.1,16.9,454.8,16.9z"/>
	<path class="st0" d="M526.7,76.9l-20.2-57.3h-0.4v57.3h-8.6V10.4h14.7l18.7,54.2h0.3L549,10.4h14.5v66.6h-9.2V19.7h-0.4l-19.4,57.3
		H526.7z"/>
	<path class="st0" d="M623.8,76.9h-47.4V10.4h46.5V18h-37.6v20.9h29.9v7.5h-29.9v22.9h38.6V76.9z"/>
	<path class="st0" d="M653.3,76.9V10.4h45.4V18h-36.3v22.1h28.5v7.6h-28.5v29.3H653.3z"/>
	<path class="st0" d="M734.7,78.2c-19.4,0-33.1-14-33.1-34.5c0-20.5,13.6-34.5,33.1-34.5c19.3,0,33.1,14,33.1,34.5
		C767.8,64.2,754,78.2,734.7,78.2z M734.7,16.9c-14.4,0-23.7,10.5-23.7,26.7s9.3,26.7,23.7,26.7c14.4,0,23.6-10.5,23.6-26.7
		S749.1,16.9,734.7,16.9z"/>
	<path class="st0" d="M821,76.9c-1.3-1.8-2.2-6.7-2.7-14.5c-0.4-7.4-3.9-12.4-13-12.4h-18.8v26.8h-9V10.4h27c16.9,0,25,7.8,25,19.6
		c0,10.2-7,15.6-15.1,16.6c8.1,1.6,12,6.5,12.7,14.4c0.8,9.7,1.2,13.5,3.4,16H821z M804,42.8c11.3,0,16.4-4.2,16.4-12.5
		c0-7.6-5.1-12.5-16.4-12.5h-17.5v24.9H804z"/>
	<path class="st0" d="M30.9,165V106H6.7v-7.6h57.9v7.6H40V165H30.9z"/>
	<path class="st0" d="M73.3,165V98.4h9.2v28.5h38.2V98.4h9.2V165h-9.2v-30.5H82.4V165H73.3z"/>
	<path class="st0" d="M190.2,165h-47.4V98.4h46.5v7.6h-37.6v20.9h29.9v7.5h-29.9v22.9h38.6V165z"/>
	<path class="st0" d="M249.2,97.1c19,0,29.8,11.7,31.1,28.8l-8.9,0.4c-0.7-12.3-8.5-21.4-22.2-21.4c-13.5,0-23.2,10.4-23.2,26.7
		c0,16.4,9.7,26.7,23.2,26.7c13.7,0,21.4-9.2,22.2-21.4l8.9,0.4c-1.3,17.1-12,28.8-31.1,28.8c-18.4,0-32.6-14-32.6-34.5
		C216.6,111.2,230.8,97.1,249.2,97.1z"/>
	<path class="st0" d="M289.2,139.5V98.4h9.1v41.2c0,12.7,6.2,18.9,17.9,18.9s18.1-6.2,18.1-18.8V98.4h9v41.1c0,19.4-12,26.7-27,26.7
		S289.2,158.9,289.2,139.5z"/>
	<path class="st0" d="M364.3,98.4v58.9h37.1v7.6h-46.3V98.4H364.3z"/>
	<path class="st0" d="M419.9,165V106h-24.2v-7.6h57.9v7.6H429V165H419.9z"/>
	<path class="st0" d="M461.4,139.5V98.4h9.1v41.2c0,12.7,6.2,18.9,17.9,18.9s18.1-6.2,18.1-18.8V98.4h9v41.1c0,19.4-12,26.7-27,26.7
		S461.4,158.9,461.4,139.5z"/>
	<path class="st0" d="M570.9,165c-1.3-1.8-2.2-6.7-2.7-14.5c-0.4-7.4-3.9-12.4-13-12.4h-18.8V165h-9V98.4h27c16.9,0,25,7.8,25,19.6
		c0,10.2-7,15.6-15.1,16.6c8.1,1.6,12,6.5,12.7,14.4c0.8,9.7,1.2,13.5,3.4,16H570.9z M553.9,130.8c11.3,0,16.4-4.2,16.4-12.5
		c0-7.6-5.1-12.5-16.4-12.5h-17.5v24.9H553.9z"/>
	<path class="st0" d="M638,165h-47.4V98.4h46.5v7.6h-37.6v20.9h29.9v7.5h-29.9v22.9H638V165z"/>
	<path class="st0" d="M646.4,154.4H657v10.4c0,7.4-2.1,11.7-10.6,11.8v-5.2c3.9-0.3,5-1.8,5-6.4h-5V154.4z"/>
	<path class="st0" d="M832.5,98.4l27.7,66.6h-9.7l-8-19.5h-30.3l-7.8,19.5h-9l27.1-66.6H832.5z M815,138.1h24.5l-12.1-29.6h-0.4
		L815,138.1z"/>
	<path class="st0" d="M913.8,149.3V98.4h8.6V165h-7.3l-38.7-53.5V165h-8.6V98.4h9.5L913.8,149.3z"/>
	<path class="st0" d="M935.3,98.4h24.1c20.9,0,34.1,12.5,34.1,33.3c0,20.8-13.2,33.3-34.1,33.3h-24.1V98.4z M958.8,157.5
		c16.3,0,25.1-9.6,25.1-25.8c0-16.2-8.9-25.8-25.1-25.8h-14.4v51.6H958.8z"/>
	<path class="st0" d="M213.2,174.5v-4.2h429.2v4.2H213.2z"/>
	<path class="st0" d="M40.5,185.2c19,0,29.8,11.7,31.1,28.8l-8.9,0.4C62,202.2,54.2,193,40.5,193c-13.5,0-23.2,10.4-23.2,26.7
		s9.7,26.7,23.2,26.7c13.7,0,21.4-9.2,22.2-21.4l8.9,0.4c-1.3,17.1-12,28.8-31.1,28.8c-18.4,0-32.6-14-32.6-34.5
		S22.1,185.2,40.5,185.2z"/>
	<path class="st0" d="M111.3,254.3c-19.4,0-33.1-14-33.1-34.5s13.6-34.5,33.1-34.5c19.3,0,33.1,14,33.1,34.5
		S130.6,254.3,111.3,254.3z M111.3,193c-14.4,0-23.7,10.5-23.7,26.7c0,16.3,9.3,26.7,23.7,26.7c14.4,0,23.6-10.5,23.6-26.7
		C134.8,203.4,125.6,193,111.3,193z"/>
	<path class="st0" d="M183.2,253L163,195.7h-0.4V253h-8.6v-66.6h14.7l18.7,54.2h0.3l17.7-54.2H220V253h-9.2v-57.3h-0.4L190.9,253
		H183.2z"/>
	<path class="st0" d="M280.3,253h-47.4v-66.6h46.5v7.6h-37.6V215h29.9v7.5h-29.9v22.9h38.6V253z"/>
	<path class="st0" d="M338.1,253h-28.3v-66.6h27.1c16.5,0,23.2,7.2,23.2,17.7c0,7.7-5.5,13-12.6,14.3c8.1,1.4,14.5,6.8,14.5,16.3
		C362,246.2,353.6,253,338.1,253z M318.6,215.2h18.6c9.6,0,13.7-4.1,13.7-10.6c0-6.3-4.1-10.7-13.7-10.7h-18.6V215.2z M318.6,222.2
		v23.2h19.2c9.9,0,15.1-4.3,15.1-11.5c0-7.3-5.2-11.7-15.1-11.7H318.6z"/>
	<path class="st0" d="M403,186.4l27.7,66.6H421l-8-19.5h-30.3l-7.8,19.5h-9l27.1-66.6H403z M385.5,226.2H410l-12.1-29.6h-0.4
		L385.5,226.2z"/>
	<path class="st0" d="M464.8,185.2c19,0,29.8,11.7,31.1,28.8l-8.9,0.4c-0.7-12.3-8.5-21.4-22.2-21.4c-13.5,0-23.2,10.4-23.2,26.7
		s9.7,26.7,23.2,26.7c13.7,0,21.4-9.2,22.2-21.4l8.9,0.4c-1.3,17.1-12,28.8-31.1,28.8c-18.4,0-32.6-14-32.6-34.5
		S446.4,185.2,464.8,185.2z"/>
	<path class="st0" d="M550,253l-27.5-31.6l-7.7,7.8V253h-9.2v-66.6h9.2v32.9l32.2-32.9h10.9l-28.6,29.3L561,253H550z"/>
	<path class="st0" d="M586.3,253v-66.6h45.4v7.6h-36.3v22.1h28.5v7.6h-28.5V253H586.3z"/>
	<path class="st0" d="M667.7,254.3c-19.4,0-33.1-14-33.1-34.5s13.6-34.5,33.1-34.5c19.3,0,33.1,14,33.1,34.5
		S687.1,254.3,667.7,254.3z M667.7,193c-14.4,0-23.7,10.5-23.7,26.7c0,16.3,9.3,26.7,23.7,26.7c14.4,0,23.6-10.5,23.6-26.7
		C691.3,203.4,682.1,193,667.7,193z"/>
	<path class="st0" d="M754,253c-1.3-1.8-2.2-6.7-2.7-14.5c-0.4-7.4-3.9-12.4-13-12.4h-18.8V253h-9v-66.6h27c16.9,0,25,7.8,25,19.6
		c0,10.2-7,15.6-15.1,16.6c8.1,1.6,12,6.5,12.7,14.4c0.8,9.7,1.2,13.5,3.4,16H754z M737,218.9c11.3,0,16.4-4.2,16.4-12.5
		c0-7.6-5.1-12.5-16.4-12.5h-17.5v24.9H737z"/>
	<path class="st0" d="M812.8,253V194h-24.2v-7.6h57.9v7.6h-24.6V253H812.8z"/>
	<path class="st0" d="M855.1,253v-66.6h9.2V215h38.2v-28.5h9.2V253h-9.2v-30.5h-38.2V253H855.1z"/>
	<path class="st0" d="M972,253h-47.4v-66.6h46.5v7.6h-37.6V215h29.9v7.5h-29.9v22.9H972V253z"/>
	<path class="st0" d="M192.6,273.2c19,0,29.8,11.7,31.1,28.8l-8.9,0.4c-0.7-12.3-8.5-21.4-22.2-21.4c-13.5,0-23.2,10.4-23.2,26.7
		s9.7,26.7,23.2,26.7c13.7,0,21.4-9.2,22.2-21.4l8.9,0.4c-1.3,17.1-12,28.8-31.1,28.8c-18.4,0-32.6-14-32.6-34.5
		S174.2,273.2,192.6,273.2z"/>
	<path class="st0" d="M263.4,342.3c-19.4,0-33.1-14-33.1-34.5s13.6-34.5,33.1-34.5c19.3,0,33.1,14,33.1,34.5
		S282.7,342.3,263.4,342.3z M263.4,281c-14.4,0-23.7,10.5-23.7,26.7c0,16.3,9.3,26.7,23.7,26.7c14.4,0,23.6-10.5,23.6-26.7
		C286.9,291.5,277.7,281,263.4,281z"/>
	<path class="st0" d="M335.3,341l-20.2-57.3h-0.4V341h-8.6v-66.6h14.7l18.7,54.2h0.3l17.7-54.2h14.5V341h-9.2v-57.3h-0.4L343,341
		H335.3z"/>
	<path class="st0" d="M414.1,341l-20.2-57.3h-0.4V341H385v-66.6h14.7l18.7,54.2h0.3l17.7-54.2h14.5V341h-9.2v-57.3h-0.4L421.8,341
		H414.1z"/>
	<path class="st0" d="M462.9,315.6v-41.1h9.1v41.2c0,12.7,6.2,18.9,17.9,18.9s18.1-6.2,18.1-18.8v-41.3h9v41.1
		c0,19.4-12,26.7-27,26.7S462.9,335,462.9,315.6z"/>
	<path class="st0" d="M574.8,325.4v-50.9h8.6V341H576l-38.7-53.5V341h-8.6v-66.6h9.5L574.8,325.4z"/>
	<path class="st0" d="M605.4,274.5V341h-9.2v-66.6H605.4z"/>
	<path class="st0" d="M638.3,341v-58.9h-24.2v-7.6H672v7.6h-24.6V341H638.3z"/>
	<path class="st0" d="M726.3,274.5h9.7l-25.9,40.5V341h-8.8v-26.1l-26-40.5h10l20.8,31.9L726.3,274.5z"/>
	<path class="st0" d="M784.3,341l-26.7-66.6h9.4l22.5,56h0.4l21.9-56h9.3L794.3,341H784.3z"/>
	<path class="st0" d="M838,274.5V341h-9.2v-66.6H838z"/>
	<path class="st0" d="M879.2,341h-28.3v-66.6H878c16.5,0,23.2,7.2,23.2,17.7c0,7.7-5.5,13-12.6,14.3c8.1,1.4,14.5,6.8,14.5,16.3
		C903.2,334.2,894.7,341,879.2,341z M859.8,303.2h18.6c9.6,0,13.7-4.1,13.7-10.6c0-6.3-4.1-10.7-13.7-10.7h-18.6V303.2z
		 M859.8,310.3v23.2H879c9.9,0,15.1-4.3,15.1-11.5c0-7.3-5.2-11.7-15.1-11.7H859.8z"/>
	<path class="st0" d="M960.7,341h-47.4v-66.6h46.5v7.6h-37.6V303h29.9v7.5h-29.9v22.9h38.6V341z"/>
	<path class="st0" d="M969.1,330.4h10.6V341h-10.6V330.4z"/>
	<path class="st0" d="M156.6,350.5v-4.2h580.7v4.2H156.6z"/>
</g>
<path class="st1" d="M791.7,122.8c0-1.7-0.9-3.2-2.3-4l-9-5.2c-1.4-0.8-2.3-2.4-2.3-4c0-2.6-2.1-4.7-4.7-4.7l-83.3,0
	c-2.6,0-4.7,2.1-4.7,4.7c0,1.7-0.9,3.2-2.3,4l-9,5.2c-1.4,0.8-2.3,2.4-2.3,4V138c0,1.7,0.9,3.2,2.3,4l9,5.2c1.4,0.8,2.3,2.4,2.3,4
	c0,2.6,2.1,4.7,4.7,4.7l83.3,0c2.6,0,4.7-2.1,4.7-4.7c0-1.7,0.9-3.2,2.3-4l9-5.2c1.4-0.8,2.3-2.4,2.3-4L791.7,122.8z"/>
<path class="st2" d="M126.7,294.3c0-1.7-0.9-3.2-2.3-4l-9-5.2c-1.4-0.8-2.3-2.4-2.3-4c0-2.6-2.1-4.7-4.7-4.7l-83.3,0
	c-2.6,0-4.7,2.1-4.7,4.7c0,1.7-0.9,3.2-2.3,4l-9,5.2c-1.4,0.8-2.3,2.4-2.3,4v15.2c0,1.7,0.9,3.2,2.3,4l9,5.2c1.4,0.8,2.3,2.4,2.3,4
	c0,2.6,2.1,4.7,4.7,4.7l83.3,0c2.6,0,4.7-2.1,4.7-4.7c0-1.7,0.9-3.2,2.3-4l9-5.2c1.4-0.8,2.3-2.4,2.3-4L126.7,294.3z"/>
</svg>
