<svg width="69" height="69" viewBox="0 0 69 69" fill="none" xmlns="http://www.w3.org/2000/svg">
<g clip-path="url(#clip0_1_5)">
<path d="M68.56 0H0V17.14H68.56V0Z" fill="white"/>
<path d="M10.87 10.83C10.78 10.79 10.75 10.74 10.75 10.62V9.82C10.75 9.62 10.81 9.6 10.95 9.69C11.37 9.96 12.06 10.15 12.79 10.15C13.63 10.15 14.09 9.97 14.09 9.6C14.09 9.16 13.42 9.14 12.58 9.05C11.67 8.95 10.66 8.71 10.66 7.47C10.66 6.47 11.53 5.92 12.89 5.92C13.73 5.92 14.34 6.07 14.78 6.29C14.87 6.33 14.9 6.38 14.9 6.5V7.29C14.9 7.49 14.84 7.51 14.7 7.43C14.29 7.16 13.7 6.99 12.89 6.99C12.28 6.99 11.8 7.16 11.8 7.53C11.8 7.9 12.37 7.93 13.03 8.02C14.08 8.13 15.23 8.33 15.23 9.66C15.23 10.66 14.33 11.22 12.8 11.22C12.04 11.22 11.33 11.05 10.88 10.84L10.87 10.83Z" fill="black"/>
<path d="M19.18 10.96V7.11H17.6C17.52 7.11 17.46 7.04 17.46 6.97V6.2C17.46 6.12 17.53 6.06 17.6 6.06H21.89C21.97 6.06 22.03 6.13 22.03 6.2V6.97C22.03 7.05 21.96 7.11 21.89 7.11H20.31V10.96C20.31 11.04 20.24 11.1 20.17 11.1H19.33C19.25 11.1 19.19 11.03 19.19 10.96H19.18Z" fill="black"/>
<path d="M23.59 10.87L25.45 6.13C25.47 6.07 25.53 6.04 25.58 6.04H27.18C27.23 6.04 27.29 6.07 27.31 6.13L29.16 10.87C29.21 10.99 29.12 11.1 29 11.1H28.1C28.05 11.1 27.99 11.07 27.97 11.01L27.57 9.98H25.19L24.79 11.01C24.77 11.07 24.71 11.1 24.66 11.1H23.76C23.64 11.1 23.56 10.98 23.6 10.87H23.59ZM27.15 8.92L26.38 6.91L25.61 8.92H27.15Z" fill="black"/>
<path d="M31.83 10.96V6.18C31.83 6.1 31.9 6.04 31.97 6.04H32.88C32.93 6.04 32.97 6.05 33.01 6.1L35.67 9.35V6.18C35.67 6.1 35.74 6.04 35.81 6.04H36.65C36.73 6.04 36.79 6.11 36.79 6.18V10.95C36.79 11.03 36.72 11.09 36.65 11.09H35.75C35.7 11.09 35.65 11.07 35.62 11.03L32.95 7.8V10.95C32.95 11.03 32.88 11.09 32.81 11.09H31.96C31.88 11.09 31.82 11.02 31.82 10.95L31.83 10.96Z" fill="black"/>
<path d="M39.74 10.96V6.18C39.74 6.1 39.81 6.04 39.88 6.04H40.73C40.81 6.04 40.87 6.11 40.87 6.18V10.03H43.34C43.42 10.03 43.48 10.1 43.48 10.17V10.94C43.48 11.02 43.41 11.08 43.34 11.08H39.88C39.8 11.08 39.74 11.01 39.74 10.94V10.96Z" fill="black"/>
<path d="M46.22 10.96V6.18C46.22 6.1 46.29 6.04 46.36 6.04H50.17C50.25 6.04 50.31 6.11 50.31 6.18V6.95C50.31 7.03 50.24 7.09 50.17 7.09H47.35V8H49.64C49.72 8 49.78 8.07 49.78 8.14V8.84C49.78 8.92 49.71 8.98 49.64 8.98H47.35V10.01H50.17C50.25 10.01 50.31 10.08 50.31 10.15V10.92C50.31 11 50.24 11.06 50.17 11.06H46.36C46.28 11.06 46.22 10.99 46.22 10.92V10.96Z" fill="black"/>
<path d="M54.8 10.96V9.35L52.85 6.29C52.77 6.17 52.83 6.04 52.97 6.04H54.07C54.07 6.04 54.15 6.05 54.16 6.08L55.36 8.18L56.57 6.08C56.57 6.08 56.63 6.04 56.66 6.04H57.75C57.89 6.04 57.95 6.16 57.87 6.29L55.93 9.35V10.96C55.93 11.04 55.86 11.1 55.79 11.1H54.94C54.86 11.1 54.8 11.03 54.8 10.96V10.96Z" fill="black"/>
<path d="M68.56 51.46H0V68.6H68.56V51.46Z" fill="white"/>
<path d="M13.4 62.4C13.31 62.36 13.28 62.31 13.28 62.19V61.39C13.28 61.19 13.34 61.17 13.48 61.26C13.9 61.53 14.59 61.72 15.32 61.72C16.16 61.72 16.62 61.54 16.62 61.17C16.62 60.73 15.95 60.71 15.11 60.62C14.2 60.52 13.19 60.28 13.19 59.04C13.19 58.04 14.06 57.49 15.42 57.49C16.26 57.49 16.87 57.64 17.31 57.86C17.4 57.9 17.43 57.95 17.43 58.07V58.86C17.43 59.06 17.37 59.08 17.23 59C16.82 58.73 16.23 58.56 15.42 58.56C14.81 58.56 14.33 58.73 14.33 59.1C14.33 59.47 14.9 59.5 15.56 59.59C16.61 59.7 17.76 59.9 17.76 61.23C17.76 62.23 16.86 62.79 15.33 62.79C14.57 62.79 13.86 62.62 13.41 62.41L13.4 62.4Z" fill="black"/>
<path d="M25.23 63.37V64C25.23 64.19 25.14 64.21 25.01 64.21C23.38 64.21 23.82 62.81 23.06 62.79C21.45 62.79 20.4 61.74 20.4 60.14C20.4 58.54 21.46 57.5 23.06 57.5C24.66 57.5 25.71 58.54 25.71 60.14C25.71 61.23 25.23 62.07 24.41 62.49C24.65 62.84 24.76 63.19 25.08 63.23C25.2 63.23 25.22 63.27 25.22 63.38L25.23 63.37ZM23.06 61.72C23.98 61.72 24.59 61.09 24.59 60.13C24.59 59.17 23.98 58.55 23.06 58.55C22.14 58.55 21.53 59.17 21.53 60.13C21.53 61.09 22.13 61.72 23.06 61.72Z" fill="black"/>
<path d="M28.52 60.22V57.75C28.52 57.67 28.59 57.61 28.66 57.61H29.51C29.59 57.61 29.65 57.68 29.65 57.75V60.22C29.65 61.28 30.06 61.79 30.89 61.79C31.72 61.79 32.13 61.28 32.13 60.22V57.75C32.13 57.67 32.2 57.61 32.27 57.61H33.11C33.19 57.61 33.25 57.68 33.25 57.75V60.22C33.25 61.93 32.47 62.78 30.89 62.78C29.31 62.78 28.52 61.93 28.52 60.22V60.22Z" fill="black"/>
<path d="M35.65 62.44L37.51 57.7C37.53 57.64 37.59 57.61 37.64 57.61H39.24C39.29 57.61 39.35 57.64 39.37 57.7L41.22 62.44C41.27 62.56 41.18 62.67 41.06 62.67H40.16C40.11 62.67 40.05 62.64 40.03 62.58L39.63 61.55H37.25L36.85 62.58C36.83 62.64 36.77 62.67 36.72 62.67H35.82C35.7 62.67 35.62 62.55 35.66 62.44H35.65ZM39.21 60.49L38.44 58.48L37.67 60.49H39.21V60.49Z" fill="black"/>
<path d="M46.12 61.03H45.02V62.58C45.02 62.64 44.98 62.67 44.93 62.67H43.99C43.92 62.67 43.89 62.63 43.89 62.58V57.71C43.89 57.65 43.93 57.62 43.99 57.62H46.31C47.47 57.62 48.21 58.32 48.21 59.33C48.21 59.9 47.98 60.36 47.56 60.65C47.94 61.06 47.99 61.65 48.31 61.66C48.43 61.67 48.45 61.7 48.45 61.81V62.52C48.45 62.71 48.36 62.73 48.23 62.73C46.65 62.73 47.14 61.04 46.11 61.04L46.12 61.03ZM46.34 59.97C46.8 59.97 47.08 59.75 47.08 59.32C47.08 58.89 46.79 58.68 46.34 58.68H45.02V59.97H46.34Z" fill="black"/>
<path d="M51.27 62.52V57.75C51.27 57.67 51.34 57.61 51.41 57.61H55.22C55.3 57.61 55.36 57.68 55.36 57.75V58.52C55.36 58.6 55.29 58.66 55.22 58.66H52.4V59.57H54.69C54.77 59.57 54.83 59.64 54.83 59.71V60.41C54.83 60.49 54.76 60.55 54.69 60.55H52.4V61.58H55.22C55.3 61.58 55.36 61.65 55.36 61.72V62.49C55.36 62.57 55.29 62.63 55.22 62.63H51.41C51.33 62.63 51.27 62.56 51.27 62.49V62.52Z" fill="black"/>
</g>
<defs>
<clipPath id="clip0_1_5">
<rect width="68.56" height="68.6" fill="white"/>
</clipPath>
</defs>
</svg>
