<svg width="152" height="17" viewBox="0 0 152 17" fill="none" xmlns="http://www.w3.org/2000/svg">
<g clip-path="url(#clip0_1_2)">
<path d="M68.56 0H0V17.14H68.56V0Z" fill="white"/>
<path d="M10.87 10.83C10.78 10.79 10.75 10.74 10.75 10.62V9.82C10.75 9.62 10.81 9.6 10.95 9.69C11.37 9.96 12.06 10.15 12.79 10.15C13.63 10.15 14.09 9.97 14.09 9.6C14.09 9.16 13.42 9.14 12.58 9.05C11.67 8.95 10.66 8.71 10.66 7.47C10.66 6.47 11.53 5.92 12.89 5.92C13.73 5.92 14.34 6.07 14.78 6.29C14.87 6.33 14.9 6.38 14.9 6.5V7.29C14.9 7.49 14.84 7.51 14.7 7.43C14.29 7.16 13.7 6.99 12.89 6.99C12.28 6.99 11.8 7.16 11.8 7.53C11.8 7.9 12.37 7.93 13.03 8.02C14.08 8.13 15.23 8.33 15.23 9.66C15.23 10.66 14.33 11.22 12.8 11.22C12.04 11.22 11.33 11.05 10.88 10.84L10.87 10.83Z" fill="black"/>
<path d="M19.18 10.96V7.11H17.6C17.52 7.11 17.46 7.04 17.46 6.97V6.2C17.46 6.12 17.53 6.06 17.6 6.06H21.89C21.97 6.06 22.03 6.13 22.03 6.2V6.97C22.03 7.05 21.96 7.11 21.89 7.11H20.31V10.96C20.31 11.04 20.24 11.1 20.17 11.1H19.33C19.25 11.1 19.19 11.03 19.19 10.96H19.18Z" fill="black"/>
<path d="M23.59 10.87L25.45 6.13C25.47 6.07 25.53 6.04 25.58 6.04H27.18C27.23 6.04 27.29 6.07 27.31 6.13L29.16 10.87C29.21 10.99 29.12 11.1 29 11.1H28.1C28.05 11.1 27.99 11.07 27.97 11.01L27.57 9.98H25.19L24.79 11.01C24.77 11.07 24.71 11.1 24.66 11.1H23.76C23.64 11.1 23.56 10.98 23.6 10.87H23.59ZM27.15 8.92L26.38 6.91L25.61 8.92H27.15Z" fill="black"/>
<path d="M31.83 10.96V6.18C31.83 6.1 31.9 6.04 31.97 6.04H32.88C32.93 6.04 32.97 6.05 33.01 6.1L35.67 9.35V6.18C35.67 6.1 35.74 6.04 35.81 6.04H36.65C36.73 6.04 36.79 6.11 36.79 6.18V10.95C36.79 11.03 36.72 11.09 36.65 11.09H35.75C35.7 11.09 35.65 11.07 35.62 11.03L32.95 7.8V10.95C32.95 11.03 32.88 11.09 32.81 11.09H31.96C31.88 11.09 31.82 11.02 31.82 10.95L31.83 10.96Z" fill="black"/>
<path d="M39.74 10.96V6.18C39.74 6.1 39.81 6.04 39.88 6.04H40.73C40.81 6.04 40.87 6.11 40.87 6.18V10.03H43.34C43.42 10.03 43.48 10.1 43.48 10.17V10.94C43.48 11.02 43.41 11.08 43.34 11.08H39.88C39.8 11.08 39.74 11.01 39.74 10.94V10.96Z" fill="black"/>
<path d="M46.22 10.96V6.18C46.22 6.1 46.29 6.04 46.36 6.04H50.17C50.25 6.04 50.31 6.11 50.31 6.18V6.95C50.31 7.03 50.24 7.09 50.17 7.09H47.35V8H49.64C49.72 8 49.78 8.07 49.78 8.14V8.84C49.78 8.92 49.71 8.98 49.64 8.98H47.35V10.01H50.17C50.25 10.01 50.31 10.08 50.31 10.15V10.92C50.31 11 50.24 11.06 50.17 11.06H46.36C46.28 11.06 46.22 10.99 46.22 10.92V10.96Z" fill="black"/>
<path d="M54.8 10.96V9.35L52.85 6.29C52.77 6.17 52.83 6.04 52.97 6.04H54.07C54.07 6.04 54.15 6.05 54.16 6.08L55.36 8.18L56.57 6.08C56.57 6.08 56.63 6.04 56.66 6.04H57.75C57.89 6.04 57.95 6.16 57.87 6.29L55.93 9.35V10.96C55.93 11.04 55.86 11.1 55.79 11.1H54.94C54.86 11.1 54.8 11.03 54.8 10.96Z" fill="black"/>
<path d="M154.56 0H86V17.14H154.56V0Z" fill="white"/>
<path d="M99.4 10.94C99.31 10.9 99.28 10.85 99.28 10.73V9.93C99.28 9.73 99.34 9.71 99.48 9.8C99.9 10.07 100.59 10.26 101.32 10.26C102.16 10.26 102.62 10.08 102.62 9.71C102.62 9.27 101.95 9.25 101.11 9.16C100.2 9.06 99.19 8.82 99.19 7.58C99.19 6.58 100.06 6.03 101.42 6.03C102.26 6.03 102.87 6.18 103.31 6.4C103.4 6.44 103.43 6.49 103.43 6.61V7.4C103.43 7.6 103.37 7.62 103.23 7.54C102.82 7.27 102.23 7.1 101.42 7.1C100.81 7.1 100.33 7.27 100.33 7.64C100.33 8.01 100.9 8.04 101.56 8.13C102.61 8.24 103.76 8.44 103.76 9.77C103.76 10.77 102.86 11.33 101.33 11.33C100.57 11.33 99.86 11.16 99.41 10.95L99.4 10.94Z" fill="black"/>
<path d="M111.23 11.91V12.54C111.23 12.73 111.14 12.75 111.01 12.75C109.38 12.75 109.82 11.35 109.06 11.33C107.45 11.33 106.4 10.28 106.4 8.68C106.4 7.08 107.46 6.04 109.06 6.04C110.66 6.04 111.71 7.08 111.71 8.68C111.71 9.77 111.23 10.61 110.41 11.03C110.65 11.38 110.76 11.73 111.08 11.77C111.2 11.77 111.22 11.81 111.22 11.92L111.23 11.91ZM109.06 10.26C109.98 10.26 110.59 9.63 110.59 8.67C110.59 7.71 109.98 7.09 109.06 7.09C108.14 7.09 107.53 7.71 107.53 8.67C107.53 9.63 108.13 10.26 109.06 10.26Z" fill="black"/>
<path d="M114.52 8.76V6.29C114.52 6.21 114.59 6.15 114.66 6.15H115.51C115.59 6.15 115.65 6.22 115.65 6.29V8.76C115.65 9.82 116.06 10.33 116.89 10.33C117.72 10.33 118.13 9.82 118.13 8.76V6.29C118.13 6.21 118.2 6.15 118.27 6.15H119.11C119.19 6.15 119.25 6.22 119.25 6.29V8.76C119.25 10.47 118.47 11.32 116.89 11.32C115.31 11.32 114.52 10.47 114.52 8.76Z" fill="black"/>
<path d="M121.65 10.98L123.51 6.24C123.53 6.18 123.59 6.15 123.64 6.15H125.24C125.29 6.15 125.35 6.18 125.37 6.24L127.22 10.98C127.27 11.1 127.18 11.21 127.06 11.21H126.16C126.11 11.21 126.05 11.18 126.03 11.12L125.63 10.09H123.25L122.85 11.12C122.83 11.18 122.77 11.21 122.72 11.21H121.82C121.7 11.21 121.62 11.09 121.66 10.98H121.65ZM125.21 9.03L124.44 7.02L123.67 9.03H125.21Z" fill="black"/>
<path d="M132.12 9.57H131.02V11.12C131.02 11.18 130.98 11.21 130.93 11.21H129.99C129.92 11.21 129.89 11.17 129.89 11.12V6.25C129.89 6.19 129.93 6.16 129.99 6.16H132.31C133.47 6.16 134.21 6.86 134.21 7.87C134.21 8.44 133.98 8.9 133.56 9.19C133.94 9.6 133.99 10.19 134.31 10.2C134.43 10.21 134.45 10.24 134.45 10.35V11.06C134.45 11.25 134.36 11.27 134.23 11.27C132.65 11.27 133.14 9.58 132.11 9.58L132.12 9.57ZM132.34 8.51C132.8 8.51 133.08 8.29 133.08 7.86C133.08 7.43 132.79 7.22 132.34 7.22H131.02V8.51H132.34Z" fill="black"/>
<path d="M137.27 11.06V6.29C137.27 6.21 137.34 6.15 137.41 6.15H141.22C141.3 6.15 141.36 6.22 141.36 6.29V7.06C141.36 7.14 141.29 7.2 141.22 7.2H138.4V8.11H140.69C140.77 8.11 140.83 8.18 140.83 8.25V8.95C140.83 9.03 140.76 9.09 140.69 9.09H138.4V10.12H141.22C141.3 10.12 141.36 10.19 141.36 10.26V11.03C141.36 11.11 141.29 11.17 141.22 11.17H137.41C137.33 11.17 137.27 11.1 137.27 11.03V11.06Z" fill="black"/>
</g>
<defs>
<clipPath id="clip0_1_2">
<rect width="152" height="17" fill="white"/>
</clipPath>
</defs>
</svg>
