<svg width="152" height="17" viewBox="0 0 152 17" fill="none" xmlns="http://www.w3.org/2000/svg">
<g clip-path="url(#clip0_1_4)">
<path d="M68.56 0H0V17.14H68.56V0Z" fill="white"/>
<path d="M10.87 10.83C10.78 10.79 10.75 10.74 10.75 10.62V9.82C10.75 9.62 10.81 9.6 10.95 9.69C11.37 9.96 12.06 10.15 12.79 10.15C13.63 10.15 14.09 9.97 14.09 9.6C14.09 9.16 13.42 9.14 12.58 9.05C11.67 8.95 10.66 8.71 10.66 7.47C10.66 6.47 11.53 5.92 12.89 5.92C13.73 5.92 14.34 6.07 14.78 6.29C14.87 6.33 14.9 6.38 14.9 6.5V7.29C14.9 7.49 14.84 7.51 14.7 7.43C14.29 7.16 13.7 6.99 12.89 6.99C12.28 6.99 11.8 7.16 11.8 7.53C11.8 7.9 12.37 7.93 13.03 8.02C14.08 8.13 15.23 8.33 15.23 9.66C15.23 10.66 14.33 11.22 12.8 11.22C12.04 11.22 11.33 11.05 10.88 10.84L10.87 10.83Z" fill="black"/>
<path d="M19.18 10.96V7.11H17.6C17.52 7.11 17.46 7.04 17.46 6.97V6.2C17.46 6.12 17.53 6.06 17.6 6.06H21.89C21.97 6.06 22.03 6.13 22.03 6.2V6.97C22.03 7.05 21.96 7.11 21.89 7.11H20.31V10.96C20.31 11.04 20.24 11.1 20.17 11.1H19.33C19.25 11.1 19.19 11.03 19.19 10.96H19.18Z" fill="black"/>
<path d="M23.59 10.87L25.45 6.13C25.47 6.07 25.53 6.04 25.58 6.04H27.18C27.23 6.04 27.29 6.07 27.31 6.13L29.16 10.87C29.21 10.99 29.12 11.1 29 11.1H28.1C28.05 11.1 27.99 11.07 27.97 11.01L27.57 9.98H25.19L24.79 11.01C24.77 11.07 24.71 11.1 24.66 11.1H23.76C23.64 11.1 23.56 10.98 23.6 10.87H23.59ZM27.15 8.92L26.38 6.91L25.61 8.92H27.15Z" fill="black"/>
<path d="M31.83 10.96V6.18C31.83 6.1 31.9 6.04 31.97 6.04H32.88C32.93 6.04 32.97 6.05 33.01 6.1L35.67 9.35V6.18C35.67 6.1 35.74 6.04 35.81 6.04H36.65C36.73 6.04 36.79 6.11 36.79 6.18V10.95C36.79 11.03 36.72 11.09 36.65 11.09H35.75C35.7 11.09 35.65 11.07 35.62 11.03L32.95 7.8V10.95C32.95 11.03 32.88 11.09 32.81 11.09H31.96C31.88 11.09 31.82 11.02 31.82 10.95L31.83 10.96Z" fill="black"/>
<path d="M39.74 10.96V6.18C39.74 6.1 39.81 6.04 39.88 6.04H40.73C40.81 6.04 40.87 6.11 40.87 6.18V10.03H43.34C43.42 10.03 43.48 10.1 43.48 10.17V10.94C43.48 11.02 43.41 11.08 43.34 11.08H39.88C39.8 11.08 39.74 11.01 39.74 10.94V10.96Z" fill="black"/>
<path d="M46.22 10.96V6.18C46.22 6.1 46.29 6.04 46.36 6.04H50.17C50.25 6.04 50.31 6.11 50.31 6.18V6.95C50.31 7.03 50.24 7.09 50.17 7.09H47.35V8H49.64C49.72 8 49.78 8.07 49.78 8.14V8.84C49.78 8.92 49.71 8.98 49.64 8.98H47.35V10.01H50.17C50.25 10.01 50.31 10.08 50.31 10.15V10.92C50.31 11 50.24 11.06 50.17 11.06H46.36C46.28 11.06 46.22 10.99 46.22 10.92V10.96Z" fill="black"/>
<path d="M54.8 10.96V9.35L52.85 6.29C52.77 6.17 52.83 6.04 52.97 6.04H54.07C54.07 6.04 54.15 6.05 54.16 6.08L55.36 8.18L56.57 6.08C56.57 6.08 56.63 6.04 56.66 6.04H57.75C57.89 6.04 57.95 6.16 57.87 6.29L55.93 9.35V10.96C55.93 11.04 55.86 11.1 55.79 11.1H54.94C54.86 11.1 54.8 11.03 54.8 10.96V10.96Z" fill="black"/>
<path d="M151.56 0H83V17.14H151.56V0Z" fill="white"/>
<path d="M96.4 10.94C96.31 10.9 96.28 10.85 96.28 10.73V9.93C96.28 9.73 96.34 9.71 96.48 9.8C96.9 10.07 97.59 10.26 98.32 10.26C99.16 10.26 99.62 10.08 99.62 9.71C99.62 9.27 98.95 9.25 98.11 9.16C97.2 9.06 96.19 8.82 96.19 7.58C96.19 6.58 97.06 6.03 98.42 6.03C99.26 6.03 99.87 6.18 100.31 6.4C100.4 6.44 100.43 6.49 100.43 6.61V7.4C100.43 7.6 100.37 7.62 100.23 7.54C99.82 7.27 99.23 7.1 98.42 7.1C97.81 7.1 97.33 7.27 97.33 7.64C97.33 8.01 97.9 8.04 98.56 8.13C99.61 8.24 100.76 8.44 100.76 9.77C100.76 10.77 99.86 11.33 98.33 11.33C97.57 11.33 96.86 11.16 96.41 10.95L96.4 10.94Z" fill="black"/>
<path d="M108.23 11.91V12.54C108.23 12.73 108.14 12.75 108.01 12.75C106.38 12.75 106.82 11.35 106.06 11.33C104.45 11.33 103.4 10.28 103.4 8.68C103.4 7.08 104.46 6.04 106.06 6.04C107.66 6.04 108.71 7.08 108.71 8.68C108.71 9.77 108.23 10.61 107.41 11.03C107.65 11.38 107.76 11.73 108.08 11.77C108.2 11.77 108.22 11.81 108.22 11.92L108.23 11.91ZM106.06 10.26C106.98 10.26 107.59 9.63 107.59 8.67C107.59 7.71 106.98 7.09 106.06 7.09C105.14 7.09 104.53 7.71 104.53 8.67C104.53 9.63 105.13 10.26 106.06 10.26Z" fill="black"/>
<path d="M111.52 8.76V6.29C111.52 6.21 111.59 6.15 111.66 6.15H112.51C112.59 6.15 112.65 6.22 112.65 6.29V8.76C112.65 9.82 113.06 10.33 113.89 10.33C114.72 10.33 115.13 9.82 115.13 8.76V6.29C115.13 6.21 115.2 6.15 115.27 6.15H116.11C116.19 6.15 116.25 6.22 116.25 6.29V8.76C116.25 10.47 115.47 11.32 113.89 11.32C112.31 11.32 111.52 10.47 111.52 8.76V8.76Z" fill="black"/>
<path d="M118.65 10.98L120.51 6.24C120.53 6.18 120.59 6.15 120.64 6.15H122.24C122.29 6.15 122.35 6.18 122.37 6.24L124.22 10.98C124.27 11.1 124.18 11.21 124.06 11.21H123.16C123.11 11.21 123.05 11.18 123.03 11.12L122.63 10.09H120.25L119.85 11.12C119.83 11.18 119.77 11.21 119.72 11.21H118.82C118.7 11.21 118.62 11.09 118.66 10.98H118.65ZM122.21 9.03L121.44 7.02L120.67 9.03H122.21V9.03Z" fill="black"/>
<path d="M129.12 9.57H128.02V11.12C128.02 11.18 127.98 11.21 127.93 11.21H126.99C126.92 11.21 126.89 11.17 126.89 11.12V6.25C126.89 6.19 126.93 6.16 126.99 6.16H129.31C130.47 6.16 131.21 6.86 131.21 7.87C131.21 8.44 130.98 8.9 130.56 9.19C130.94 9.6 130.99 10.19 131.31 10.2C131.43 10.21 131.45 10.24 131.45 10.35V11.06C131.45 11.25 131.36 11.27 131.23 11.27C129.65 11.27 130.14 9.58 129.11 9.58L129.12 9.57ZM129.34 8.51C129.8 8.51 130.08 8.29 130.08 7.86C130.08 7.43 129.79 7.22 129.34 7.22H128.02V8.51H129.34Z" fill="black"/>
<path d="M134.27 11.06V6.29C134.27 6.21 134.34 6.15 134.41 6.15H138.22C138.3 6.15 138.36 6.22 138.36 6.29V7.06C138.36 7.14 138.29 7.2 138.22 7.2H135.4V8.11H137.69C137.77 8.11 137.83 8.18 137.83 8.25V8.95C137.83 9.03 137.76 9.09 137.69 9.09H135.4V10.12H138.22C138.3 10.12 138.36 10.19 138.36 10.26V11.03C138.36 11.11 138.29 11.17 138.22 11.17H134.41C134.33 11.17 134.27 11.1 134.27 11.03V11.06Z" fill="black"/>
</g>
<defs>
<clipPath id="clip0_1_4">
<rect width="152" height="17" fill="white"/>
</clipPath>
</defs>
</svg>
